PathFileType	4	(X/Y/Z)	 2.2Hzlow3min.trc
DataRate	CameraRate	NumFrames	NumMarkers	Units	OrigDataRate	OrigDataStartFrame	OrigNumFrames
200	200	10	35	m	200	251	1000
Frame#	Time	C7			LSH			RSH			MAN			RASI			LASI			HIPR			HIPL			RPSI			LPSI			COX			RTHI1			RTHI2			RTHI3			RTHI4			RSHA1			RSHA2			RSHA3			RSHA4			RHEEL			RMET5			RMET1			RTOE			LTHI1			LTHI2			LTHI3			LTHI4			LSHA1			LSHA2			LSHA3			LSHA4			LHEEL			LMET5			LMET1			LTOE			
		X1	Y1	Z1	X2	Y2	Z2	X3	Y3	Z3	X4	Y4	Z4	X5	Y5	Z5	X6	Y6	Z6	X7	Y7	Z7	X8	Y8	Z8	X9	Y9	Z9	X10	Y10	Z10	X11	Y11	Z11	X12	Y12	Z12	X13	Y13	Z13	X14	Y14	Z14	X15	Y15	Z15	X16	Y16	Z16	X17	Y17	Z17	X18	Y18	Z18	X19	Y19	Z19	X20	Y20	Z20	X21	Y21	Z21	X22	Y22	Z22	X23	Y23	Z23	X24	Y24	Z24	X25	Y25	Z25	X26	Y26	Z26	X27	Y27	Z27	X28	Y28	Z28	X29	Y29	Z29	X30	Y30	Z30	X31	Y31	Z31	X32	Y32	Z32	X33	Y33	Z33	X34	Y34	Z34	X35	Y35	Z35	
251	1.2550	-0.327283	1.371550	-0.556490	-0.265991	1.331075	-0.733592	-0.270831	1.338128	-0.386074	-0.217073	1.322077	-0.559995	-0.194068	0.933554	-0.477433	-0.196084	0.937871	-0.648850	-0.249917	0.989084	-0.425572	-0.244142	0.996568	-0.678547	-0.332388	0.976195	-0.487510	-0.333779	0.983094	-0.602489	-0.339324	0.986783	-0.546054	-0.263911	0.765518	-0.378691	-0.257103	0.704146	-0.372771	-0.188838	0.717056	-0.397135	-0.203726	0.775376	-0.400235	-0.298894	0.335578	-0.340411	-0.320515	0.298058	-0.343139	-0.265534	0.274738	-0.354548	-0.248994	0.311630	-0.355447	-0.426605	0.106634	-0.398621	-0.289809	0.032961	-0.325429	-0.253763	0.036896	-0.396640	-0.231145	0.027728	-0.388402	-0.302532	0.721789	-0.727758	-0.293657	0.662973	-0.727918	-0.222922	0.674423	-0.737103	-0.239368	0.733627	-0.737313	-0.347939	0.312794	-0.736514	-0.365338	0.276683	-0.730494	-0.306750	0.255051	-0.739397	-0.296859	0.297450	-0.744857	-0.436437	0.109099	-0.676320	-0.307717	0.029229	-0.755233	-0.262728	0.038606	-0.692724	-0.242533	0.027373	-0.703394	
252	1.2600	-0.326644	1.366066	-0.556621	-0.265281	1.325206	-0.733738	-0.270335	1.332367	-0.386078	-0.216333	1.316454	-0.560122	-0.194604	0.928041	-0.477442	-0.196711	0.932510	-0.649007	-0.250571	0.983378	-0.425656	-0.244718	0.991088	-0.678528	-0.333147	0.970563	-0.487471	-0.334520	0.977664	-0.602501	-0.339993	0.981234	-0.545951	-0.264108	0.759705	-0.379014	-0.256871	0.698380	-0.373264	-0.188716	0.711829	-0.397561	-0.203990	0.770046	-0.400515	-0.297832	0.331858	-0.340973	-0.320055	0.294652	-0.343810	-0.265310	0.270501	-0.354980	-0.248238	0.307177	-0.355816	-0.428596	0.103544	-0.399002	-0.290659	0.032493	-0.325121	-0.254410	0.036645	-0.397036	-0.231626	0.027652	-0.388496	-0.302618	0.715833	-0.727485	-0.293253	0.657076	-0.727472	-0.222669	0.669043	-0.737162	-0.239585	0.728123	-0.737430	-0.346956	0.309306	-0.736172	-0.364986	0.273600	-0.730240	-0.306621	0.250973	-0.738914	-0.296107	0.293273	-0.744410	-0.438443	0.105844	-0.675969	-0.308300	0.028877	-0.755327	-0.263370	0.038286	-0.691826	-0.242956	0.027230	-0.702875	
253	1.2650	-0.326028	1.360478	-0.556730	-0.264606	1.319210	-0.733876	-0.269789	1.326461	-0.386076	-0.215618	1.310704	-0.560234	-0.195127	0.922413	-0.477433	-0.197378	0.927033	-0.649173	-0.251230	0.977529	-0.425711	-0.245342	0.985463	-0.678526	-0.333957	0.964731	-0.487418	-0.335332	0.972079	-0.602485	-0.340690	0.975513	-0.545794	-0.264436	0.753733	-0.379341	-0.256743	0.692463	-0.373757	-0.188662	0.706495	-0.397867	-0.204353	0.764600	-0.400688	-0.296782	0.328205	-0.341650	-0.319578	0.291395	-0.344486	-0.265070	0.266326	-0.355356	-0.247488	0.302774	-0.356172	-0.430439	0.100463	-0.399320	-0.291461	0.031996	-0.324810	-0.254986	0.036368	-0.397518	-0.232028	0.027550	-0.388627	-0.302657	0.709666	-0.727149	-0.292752	0.650997	-0.726991	-0.222349	0.663549	-0.737255	-0.239771	0.722476	-0.737578	-0.345748	0.305616	-0.735881	-0.364263	0.270220	-0.730101	-0.306135	0.246807	-0.738464	-0.295088	0.289008	-0.743970	-0.440168	0.102603	-0.675566	-0.308678	0.028550	-0.755414	-0.263796	0.037940	-0.691041	-0.243167	0.027091	-0.702406	
254	1.2700	-0.325439	1.354822	-0.556820	-0.263956	1.313111	-0.734016	-0.269211	1.320436	-0.386072	-0.214924	1.304832	-0.560330	-0.195627	0.916687	-0.477405	-0.198090	0.921469	-0.649357	-0.251901	0.971561	-0.425729	-0.246020	0.979726	-0.678555	-0.334839	0.958759	-0.487301	-0.336220	0.966354	-0.602462	-0.341447	0.969657	-0.545620	-0.264897	0.747624	-0.379675	-0.256701	0.686424	-0.374239	-0.188658	0.701090	-0.398006	-0.204808	0.759072	-0.400725	-0.295715	0.324594	-0.342387	-0.319040	0.288146	-0.345231	-0.264763	0.262208	-0.355693	-0.246703	0.298421	-0.356538	-0.432104	0.097365	-0.399624	-0.292159	0.031500	-0.324476	-0.255433	0.036088	-0.398009	-0.232295	0.027440	-0.388771	-0.302626	0.703311	-0.726763	-0.292129	0.644773	-0.726505	-0.221936	0.657979	-0.737383	-0.239907	0.716712	-0.737749	-0.344301	0.301726	-0.735639	-0.363177	0.266505	-0.730022	-0.305279	0.242523	-0.737962	-0.293794	0.284641	-0.743496	-0.441608	0.099454	-0.675049	-0.308939	0.028252	-0.755500	-0.264058	0.037594	-0.690380	-0.243220	0.026960	-0.702001	
255	1.2750	-0.324798	1.349107	-0.556902	-0.263336	1.306939	-0.734160	-0.268632	1.314364	-0.386036	-0.214264	1.298854	-0.560408	-0.196101	0.910895	-0.477362	-0.198848	0.915859	-0.649567	-0.252582	0.965494	-0.425703	-0.246761	0.973911	-0.678619	-0.335775	0.952674	-0.487160	-0.337197	0.960526	-0.602433	-0.342259	0.963698	-0.545429	-0.265480	0.741416	-0.380015	-0.256724	0.680303	-0.374686	-0.188679	0.695686	-0.397931	-0.205352	0.753521	-0.400595	-0.294603	0.320982	-0.343136	-0.318394	0.284903	-0.345977	-0.264353	0.258121	-0.356025	-0.245859	0.294110	-0.356938	-0.433610	0.094293	-0.399987	-0.292723	0.031039	-0.324146	-0.255735	0.035818	-0.398438	-0.232415	0.027333	-0.388899	-0.302506	0.696827	-0.726356	-0.291375	0.638454	-0.726043	-0.221418	0.652374	-0.737544	-0.239983	0.710871	-0.737934	-0.342650	0.297683	-0.735435	-0.361774	0.262495	-0.729933	-0.304094	0.238151	-0.737339	-0.292246	0.280186	-0.742930	-0.442789	0.096469	-0.674381	-0.309147	0.028001	-0.755552	-0.264205	0.037256	-0.689786	-0.243176	0.026846	-0.701647	
256	1.2800	-0.324107	1.343383	-0.556976	-0.262753	1.300737	-0.734317	-0.268055	1.308308	-0.385934	-0.213675	1.292747	-0.560475	-0.196546	0.905074	-0.477300	-0.199660	0.910240	-0.649817	-0.253271	0.959368	-0.425628	-0.247575	0.968060	-0.678732	-0.336770	0.946509	-0.486957	-0.338263	0.954637	-0.602404	-0.343130	0.957692	-0.545235	-0.266162	0.735151	-0.380347	-0.256786	0.674148	-0.375086	-0.188699	0.690327	-0.397632	-0.205967	0.747996	-0.400286	-0.293430	0.317317	-0.343889	-0.317626	0.281422	-0.346666	-0.263808	0.254049	-0.356394	-0.244929	0.289838	-0.357351	-0.434968	0.091303	-0.400466	-0.293155	0.030631	-0.323863	-0.255921	0.035558	-0.398811	-0.232423	0.027232	-0.389000	-0.302304	0.690300	-0.725994	-0.290510	0.632110	-0.725640	-0.220808	0.646776	-0.737735	-0.240001	0.705023	-0.738148	-0.340834	0.293588	-0.735228	-0.360168	0.258329	-0.729774	-0.302663	0.233769	-0.736537	-0.290495	0.275721	-0.742242	-0.443744	0.093693	-0.673528	-0.309324	0.027810	-0.755517	-0.264283	0.036940	-0.689239	-0.243090	0.026758	-0.701343	
257	1.2850	-0.323436	1.337753	-0.557037	-0.262204	1.294548	-0.734498	-0.267474	1.302351	-0.385765	-0.213075	1.286623	-0.560529	-0.196957	0.899260	-0.477231	-0.200514	0.904654	-0.650122	-0.253970	0.953210	-0.425502	-0.248478	0.962223	-0.678907	-0.337834	0.940330	-0.486701	-0.339421	0.948739	-0.602359	-0.344062	0.951696	-0.545003	-0.266909	0.728898	-0.380652	-0.256861	0.668019	-0.375437	-0.188707	0.685057	-0.397119	-0.206622	0.742551	-0.399806	-0.292179	0.313606	-0.344576	-0.316716	0.277812	-0.347339	-0.263110	0.249997	-0.356839	-0.243900	0.285602	-0.357804	-0.436172	0.088438	-0.401089	-0.293506	0.030290	-0.323659	-0.256032	0.035308	-0.399168	-0.232374	0.027135	-0.389093	-0.302034	0.683824	-0.725700	-0.289562	0.625824	-0.725283	-0.220123	0.641249	-0.737933	-0.239973	0.699237	-0.738390	-0.338881	0.289571	-0.734964	-0.358441	0.254257	-0.729531	-0.301087	0.229486	-0.735558	-0.288608	0.271353	-0.741423	-0.444510	0.091142	-0.672502	-0.309481	0.027676	-0.755376	-0.264323	0.036661	-0.688742	-0.242988	0.026691	-0.701079	
258	1.2900	-0.322775	1.332274	-0.557100	-0.261708	1.288433	-0.734705	-0.266904	1.296560	-0.385546	-0.212395	1.280567	-0.560570	-0.197342	0.893500	-0.477150	-0.201399	0.899148	-0.650495	-0.254681	0.947062	-0.425323	-0.249483	0.956451	-0.679154	-0.338967	0.934237	-0.486388	-0.340657	0.942897	-0.602299	-0.345037	0.945774	-0.544754	-0.267687	0.722724	-0.380900	-0.256941	0.661979	-0.375743	-0.188709	0.679918	-0.396444	-0.207297	0.737232	-0.399162	-0.290845	0.309871	-0.345199	-0.315662	0.274100	-0.348007	-0.262262	0.246001	-0.357382	-0.242770	0.281440	-0.358339	-0.437205	0.085712	-0.401820	-0.293820	0.030031	-0.323555	-0.256092	0.035071	-0.399514	-0.232294	0.027049	-0.389182	-0.301716	0.677524	-0.725472	-0.288578	0.619716	-0.724966	-0.219400	0.635882	-0.738126	-0.239909	0.693601	-0.738648	-0.336822	0.285815	-0.734613	-0.356668	0.250518	-0.729137	-0.299465	0.225425	-0.734442	-0.286644	0.267199	-0.740505	-0.445111	0.088813	-0.671331	-0.309640	0.027589	-0.755147	-0.264338	0.036418	-0.688278	-0.242873	0.026642	-0.700842	
259	1.2950	-0.322124	1.326991	-0.557162	-0.261306	1.282466	-0.734934	-0.266357	1.290980	-0.385278	-0.211737	1.274643	-0.560602	-0.197712	0.887845	-0.477060	-0.202301	0.893765	-0.650943	-0.255398	0.940975	-0.425093	-0.250603	0.950795	-0.679482	-0.340132	0.928250	-0.486035	-0.341950	0.937200	-0.602192	-0.346034	0.940015	-0.544460	-0.268468	0.716713	-0.381074	-0.257037	0.656108	-0.376017	-0.188724	0.674963	-0.395677	-0.207980	0.732090	-0.398394	-0.289436	0.306172	-0.345744	-0.314482	0.270421	-0.348619	-0.261280	0.242094	-0.358050	-0.241544	0.277406	-0.358952	-0.438084	0.083157	-0.402686	-0.294098	0.029859	-0.323567	-0.256107	0.034855	-0.399844	-0.232190	0.026973	-0.389268	-0.301373	0.671549	-0.725314	-0.287602	0.613903	-0.724670	-0.218678	0.630768	-0.738293	-0.239823	0.688227	-0.738905	-0.334709	0.282412	-0.734143	-0.354872	0.247276	-0.728607	-0.297861	0.221704	-0.733263	-0.284654	0.263353	-0.739532	-0.445558	0.086690	-0.670033	-0.309803	0.027537	-0.754845	-0.264319	0.036206	-0.687839	-0.242738	0.026602	-0.700628	
260	1.3000	-0.321529	1.321964	-0.557219	-0.261013	1.276719	-0.735183	-0.265850	1.285624	-0.385023	-0.211002	1.268956	-0.560636	-0.198078	0.882341	-0.476963	-0.203201	0.888554	-0.651471	-0.256111	0.935009	-0.424817	-0.251858	0.945297	-0.679889	-0.341315	0.922470	-0.485614	-0.343261	0.931734	-0.602037	-0.347036	0.934504	-0.544141	-0.269237	0.710959	-0.381180	-0.257173	0.650491	-0.376283	-0.188783	0.670214	-0.394889	-0.208659	0.727166	-0.397550	-0.287968	0.302615	-0.346173	-0.313204	0.266824	-0.349340	-0.260189	0.238350	-0.358829	-0.240233	0.273528	-0.359637	-0.438772	0.080751	-0.403644	-0.294344	0.029758	-0.323691	-0.256077	0.034654	-0.400171	-0.232061	0.026903	-0.389354	-0.301027	0.666003	-0.725206	-0.286668	0.608497	-0.724391	-0.217983	0.626002	-0.738406	-0.239725	0.683223	-0.739143	-0.332589	0.279435	-0.733547	-0.353079	0.244629	-0.727900	-0.296326	0.218383	-0.732101	-0.282699	0.259885	-0.738563	-0.445871	0.084739	-0.668644	-0.309959	0.027512	-0.754497	-0.264261	0.036022	-0.687438	-0.242582	0.026566	-0.700446	
